<svg width="213" height="18" fill="none" xmlns="http://www.w3.org/2000/svg"><path d="M3.233 16.784a5.957 5.957 0 01-2.415-2.542C.27 13.158 0 11.932 0 10.562V.293h3.71v9.977c0 1.256.29 2.219.865 2.898.576.676 1.404 1.014 2.475 1.014 1.07 0 1.899-.338 2.475-1.014.579-.676.865-1.642.865-2.898V.294h3.71v10.27c0 1.371-.271 2.598-.818 3.682a5.957 5.957 0 01-2.416 2.542c-1.067.613-2.339.918-3.82.918-1.48 0-2.75-.308-3.813-.922zm12.7-16.49h5.686c1.66 0 2.984.37 3.978 1.113.993.742 1.488 1.749 1.488 3.02 0 .929-.198 1.7-.598 2.31-.4.61-.949 1.065-1.645 1.356 2.034.767 3.05 2.174 3.05 4.228 0 .977-.25 1.855-.745 2.63-.494.775-1.198 1.378-2.111 1.811-.913.433-1.976.647-3.197.647h-5.906V.294zm5.66 6.895c.587 0 1.052-.158 1.404-.478.349-.315.525-.76.525-1.333 0-.57-.176-1.014-.525-1.333-.352-.316-.817-.478-1.404-.478h-1.95v3.618h1.95v.004zm.1 6.943c.795 0 1.41-.184 1.84-.551.432-.367.649-.9.649-1.602 0-.701-.217-1.234-.65-1.601-.432-.368-1.044-.551-1.84-.551h-2.05v4.305h2.05zM29.329.294h3.71v17.115h-3.71V.294zm7.347 16.431c-1.075-.65-1.848-1.58-2.317-2.788l2.95-2.2c.261.75.701 1.352 1.317 1.81.616.456 1.283.684 2.002.684.616 0 1.121-.158 1.514-.477.388-.32.586-.746.586-1.283 0-.521-.22-.97-.66-1.344-.44-.375-1.253-.775-2.441-1.198-1.481-.54-2.614-1.194-3.402-1.969-.788-.775-1.184-1.822-1.184-3.14 0-.911.234-1.738.707-2.469.473-.735 1.13-1.308 1.976-1.723.847-.415 1.808-.624 2.878-.624 1.316 0 2.46.264 3.428.793.968.53 1.686 1.308 2.16 2.336l-2.952 2.054c-.587-1.319-1.514-1.98-2.783-1.98-.568 0-1.037.14-1.404.415-.366.28-.55.636-.55 1.076 0 .489.257.919.77 1.286.514.367 1.419.779 2.72 1.234 1.53.537 2.651 1.187 3.37 1.944.715.756 1.074 1.77 1.074 3.041 0 1.143-.264 2.127-.792 2.957a5.129 5.129 0 01-2.134 1.896c-.894.433-1.888.646-2.977.646-1.5 0-2.782-.327-3.856-.977zM60.648 1.16a8.148 8.148 0 013.098 3.193c.74 1.356 1.11 2.854 1.11 4.5 0 1.664-.37 3.167-1.11 4.511a8.184 8.184 0 01-3.098 3.178c-1.323.771-2.82 1.16-4.476 1.16-1.694 0-3.197-.37-4.513-1.113-1.316-.742-2.343-1.744-3.076-3.008a8.111 8.111 0 01-1.1-4.144c0-1.403.253-2.645.755-3.728a7.782 7.782 0 012.075-2.726l-.586-.588c.685-.702 1.595-1.275 2.735-1.723C53.602.224 54.837 0 56.172 0c1.66 0 3.153.386 4.476 1.16zM58.76 13.497a4.585 4.585 0 001.734-1.895c.407-.808.609-1.723.609-2.752 0-1.025-.206-1.943-.609-2.751a4.585 4.585 0 00-1.734-1.896c-.748-.455-1.61-.683-2.588-.683-.829 0-1.566.14-2.21.415a4.633 4.633 0 00-1.6 1.102l.587.588c-.52.44-.934.952-1.246 1.528-.308.58-.462 1.3-.462 2.164 0 .882.198 1.69.598 2.432a4.48 4.48 0 001.719 1.77c.748.441 1.617.662 2.61.662.979 0 1.844-.228 2.592-.684zm11.321-9.684v3.938h7.248v2.836H70.08v6.822h-3.71V.294h11.688v3.52H70.08zm22.693 0H87.99V17.41h-3.706V3.813h-4.807V.293h13.3v3.52h-.003zm12.139 12.777c-1.276-.743-2.277-1.786-3.003-3.13-.726-1.345-1.085-2.88-1.085-4.61 0-1.712.363-3.24 1.085-4.585.722-1.345 1.716-2.392 2.977-3.14C106.152.374 107.56 0 109.121 0c1.661 0 3.058.338 4.198 1.014 1.14.676 2.016 1.642 2.636 2.898l-1.756 1.198c-.539-1.01-1.199-1.763-1.987-2.263s-1.793-.746-3.014-.746c-1.173 0-2.221.287-3.149.856-.927.57-1.646 1.37-2.159 2.395-.514 1.025-.77 2.193-.77 3.497 0 1.356.245 2.535.744 3.545.495 1.01 1.199 1.797 2.112 2.359.909.562 1.983.84 3.222.84 1.254 0 2.244-.242 2.977-.734.733-.488 1.39-1.286 1.976-2.395l1.808 1.271c-.701 1.286-1.599 2.27-2.699 2.946-1.1.676-2.452 1.014-4.062 1.014-1.58.007-3.006-.364-4.285-1.106zm17.252-.037a8.011 8.011 0 01-2.988-3.167c-.715-1.344-1.074-2.858-1.074-4.537 0-1.678.359-3.192 1.074-4.533.715-1.344 1.712-2.402 2.988-3.166 1.276-.764 2.72-1.15 4.33-1.15 1.609 0 3.054.382 4.329 1.15a8.01 8.01 0 012.988 3.166c.715 1.345 1.075 2.858 1.075 4.533 0 1.68-.36 3.193-1.075 4.537-.715 1.345-1.712 2.403-2.988 3.167-1.279.767-2.72 1.15-4.329 1.15-1.61 0-3.054-.383-4.33-1.15zm7.505-1.822c.927-.577 1.646-1.378 2.159-2.396.513-1.017.77-2.178.77-3.482 0-1.304-.257-2.465-.77-3.482-.513-1.018-1.232-1.819-2.159-2.395-.928-.58-1.987-.867-3.172-.867-1.187 0-2.243.29-3.171.867-.927.576-1.646 1.377-2.159 2.395-.513 1.017-.77 2.182-.77 3.482 0 1.304.257 2.465.77 3.482.513 1.022 1.232 1.819 2.159 2.396.928.58 1.984.867 3.171.867 1.185 0 2.244-.287 3.172-.867zM137.526.294h3.072l8.15 14.473h.147l-.147-2.027V.294h2.244v17.115h-3.076l-8.15-14.474h-.147l.147 2.028v12.446h-2.244V.294h.004zm16.494 0h3.072l8.15 14.473h.146l-.146-2.027V.294h2.243v17.115h-3.075l-8.15-14.474h-.147l.147 2.028v12.446h-2.244V.294h.004zm27.499 15.01v2.105h-11.005V.294h10.859v2.101h-8.612V7.92h7.783v1.859h-7.783v5.525h8.758zm5.994 1.286c-1.275-.743-2.276-1.786-3.002-3.13-.722-1.345-1.085-2.88-1.085-4.61 0-1.712.363-3.24 1.085-4.585.722-1.345 1.716-2.392 2.977-3.14C188.749.374 190.16 0 191.722 0c1.661 0 3.058.338 4.198 1.014 1.14.676 2.016 1.642 2.636 2.898L196.8 5.11c-.539-1.01-1.199-1.763-1.987-2.263-.789-.496-1.793-.746-3.014-.746-1.173 0-2.222.287-3.149.856-.928.57-1.646 1.37-2.159 2.395-.514 1.025-.77 2.193-.77 3.497 0 1.356.245 2.535.744 3.545.495 1.01 1.199 1.797 2.112 2.359.909.562 1.983.84 3.222.84 1.254 0 2.244-.242 2.977-.734.733-.488 1.389-1.286 1.976-2.395l1.807 1.271c-.7 1.286-1.598 2.27-2.698 2.946-1.1.676-2.453 1.014-4.062 1.014-1.584.007-3.01-.364-4.286-1.106zm25.414-14.243h-5.052V17.41h-2.244V2.347h-5.074V.294h12.373v2.053h-.003z" fill="#fff"/></svg>